<svg xmlns="http://www.w3.org/2000/svg" id="mainsvg" width="1668.19296875" height="1487.5492187500001" viewBox="-169.484375 -10 1516.5390625 1353.2265625"><defs><marker id="arrow" viewBox="0 0 10 10" refX="10" refY="5" markerWidth="5" markerHeight="5" orient="auto-start-reverse" fill="black"><path stroke="black" d="M 0 0 L 10 5 L 0 10 z"/></marker><marker id="Many" viewBox="0 0 16 16" refX="15" refY="8" markerWidth="15" markerHeight="15" orient="auto-start-reverse"><path stroke="black" d="M0 8H15M15 15L2 8L15 1" fill="none"/></marker><marker id="ZeroOrOne" viewBox="0 0 16 10" refX="15" refY="5" markerWidth="21" markerHeight="21" orient="auto-start-reverse"><path d="M9 5H16" stroke="black" fill="none"/><circle cx="5" cy="5" r="4.5" stroke="black" fill="#fff"/><path d="M12 0L12 10" stroke="black" fill="none"/></marker><marker id="OneOnlyOne" viewBox="0 0 10 14" refX="10" refY="7" markerWidth="13" markerHeight="13" orient="auto-start-reverse"><path d="M0 7H4M4 7H7M4 7V0M4 7V14M7 7H10M7 7V0M7 7V14" stroke="black" fill="none"/></marker><marker id="OneOrMany" viewBox="0 0 16 16" refX="15" refY="8" markerWidth="15" markerHeight="15" orient="auto-start-reverse"><path stroke="black" d="M2 1V15M2 8L15 15M2 8L15 1M2 8H0M2 8H15" fill="none"/></marker><marker id="ZeroOrMany" viewBox="0 0 25 16" refX="23" refY="8" markerWidth="25" markerHeight="25" orient="auto-start-reverse"><path d="M13 8H27M27 15L14 8L27 1" stroke="black" fill="none"/><path d="M13.5 7.5C13.5 10.7795 10.6254 13.5 7 13.5C3.37461 13.5 0.5 10.7795 0.5 7.5C0.5 4.22054 3.37461 1.5 7 1.5C10.6254 1.5 13.5 4.22054 13.5 7.5Z" stroke="black" fill="#fff"/></marker><marker id="aggregation" viewBox="0 0 10 6" refX="9.3" refY="2.8" markerWidth="23" markerHeight="15" orient="auto-start-reverse"><path stroke="black" fill="#fff" stroke-width="0.7" d="M1.01614 2.82609L5 0.574341L8.98386 2.82609L5 5.07783L1.01614 2.82609Z"/></marker><marker id="composition" viewBox="0 0 10 6" refX="9.7" refY="2.8" markerWidth="18" markerHeight="15" orient="auto-start-reverse"><path stroke="black" fill="black" d="M1.01614 2.82609L5 0.574341L8.98386 2.82609L5 5.07783L1.01614 2.82609Z"/></marker><marker id="implementation" viewBox="0 0 8 10" refX="8" refY="5" markerWidth="20" markerHeight="20" orient="auto-start-reverse"><path stroke="black" fill="#fff" stroke-width="0.7" d="M0.750001 1.10289L7.5 5L0.750001 8.89712L0.750001 1.10289Z"/></marker><marker id="dependency" viewBox="0 0 12 12" refX="11" refY="6" markerWidth="12" markerHeight="11" orient="auto-start-reverse"><path stroke="black" fill="#fff" d="M1 5.93162H10.886M10.886 5.93162L1 0.5M10.886 5.93162L1 11"/></marker><marker id="inheritance" viewBox="0 0 8 10" refX="8" refY="5" markerWidth="20" markerHeight="20" orient="auto-start-reverse"><path stroke="black" fill="#fff" stroke-width="0.7" d="M0.750001 1.10289L7.5 5L0.750001 8.89712L0.750001 1.10289Z"/></marker><marker id="association" viewBox="0 0 12 12" refX="11" refY="6" markerWidth="12" markerHeight="11" orient="auto-start-reverse"><path stroke="black" d="M1 5.93162H10.886M10.886 5.93162L1 0.5M10.886 5.93162L1 11"/></marker><filter id="shadowOLD" x="-50%" y="-50%" width="250%" height="250%"><feDropShadow flood-color="black" flood-opacity="0.3" dx="1" dy="1" stdDeviation="2"> </feDropShadow></filter><filter id="shadow-path" filterUnits="userSpaceOnUse" x="-169.484375" y="-10" width="1516.5390625px" height="1343.2265625px"><feDropShadow flood-color="black" flood-opacity="0.1" dx="1" dy="1" stdDeviation="1"> </feDropShadow></filter><filter id="shadow" filterUnits="userSpaceOnUse" x="-169.484375" y="-10" width="1616.5390625px" height="1443.2265625px"><feDropShadow flood-color="black" flood-opacity="0.1" dx="1" dy="1" stdDeviation="1"> </feDropShadow></filter></defs><rect x="-169.484375" y="-10" width="1516.5390625" height="1343.2265625" fill="#fff"/><g transform="translate(0, 0)"><rect width="139.609375" height="34" stroke="black" fill="white" stroke-width="2" transform="translate(0, 0)" rx="3"/><text fill="black" font-size="16" font-weight="normal" transform="translate(8, 8)" alignment-baseline="middle" font-family="Arial"><tspan x="0" dy="16" font-family="Arial" font-size="16" font-weight="normal">ID Resolver Input</tspan></text></g><g transform="translate(-131.484375, 62)"><rect width="402.578125" height="34" stroke="black" fill="white" stroke-width="2" transform="translate(0, 0)" rx="3"/><text fill="black" font-size="16" font-weight="normal" transform="translate(8, 8)" alignment-baseline="middle" font-family="Arial"><tspan x="0" dy="16" font-family="Arial" font-size="16" font-weight="normal">Validate if input is an object with object values as array</tspan></text></g><g transform="translate(-4.9921875, 124)"><path d="M 74.796875,0 L 149.59375 74.796875 L 74.796875 149.59375 L 0 74.796875 Z" fill="white" stroke="black" stroke-dasharray="none" stroke-width="2"/><g transform="translate(17, 57.796875)"><rect width="115.59375" height="34" stroke="black" fill="none" stroke-width="0" transform="translate(0, 0)" rx="2"/><text fill="black" font-size="16" font-weight="normal" transform="translate(8, 8)" alignment-baseline="middle" font-family="Arial"><tspan x="0" dy="16" font-family="Arial" font-size="16" font-weight="normal">structure valid</tspan></text></g></g><g transform="translate(191.2998046875, 181.796875)"><rect width="178.75" height="34" stroke="black" fill="white" stroke-width="2" transform="translate(0, 0)" rx="3"/><text fill="black" font-size="16" font-weight="normal" transform="translate(8, 8)" alignment-baseline="middle" font-family="Arial"><tspan x="0" dy="16" font-family="Arial" font-size="16" font-weight="normal">check if type in BioLink</tspan></text></g><g transform="translate(201.4208984375, 325.59375)"><path d="M 79.25390625,0 L 158.5078125 79.25390625 L 79.25390625 158.5078125 L 0 79.25390625 Z" fill="white" stroke="black" stroke-dasharray="none" stroke-width="2"/><g transform="translate(17, 62.25390625)"><rect width="124.5078125" height="34" stroke="black" fill="none" stroke-width="0" transform="translate(0, 0)" rx="2"/><text fill="black" font-size="16" font-weight="normal" transform="translate(8, 8)" alignment-baseline="middle" font-family="Arial"><tspan x="0" dy="16" font-family="Arial" font-size="16" font-weight="normal">Type in BioLink</tspan></text></g></g><g transform="translate(406.626953125, 387.84765625)"><rect width="168.96875" height="34" stroke="black" fill="white" stroke-width="2" transform="translate(0, 0)" rx="3"/><text fill="black" font-size="16" font-weight="normal" transform="translate(8, 8)" alignment-baseline="middle" font-family="Arial"><tspan x="0" dy="16" font-family="Arial" font-size="16" font-weight="normal">check if type in config</tspan></text></g><g transform="translate(416.748046875, 536.1015625)"><path d="M 74.36328125,0 L 148.7265625 74.36328125 L 74.36328125 148.7265625 L 0 74.36328125 Z" fill="white" stroke="black" stroke-dasharray="none" stroke-width="2"/><g transform="translate(17, 57.36328125)"><rect width="114.7265625" height="34" stroke="black" fill="none" stroke-width="0" transform="translate(0, 0)" rx="2"/><text fill="black" font-size="16" font-weight="normal" transform="translate(8, 8)" alignment-baseline="middle" font-family="Arial"><tspan x="0" dy="16" font-family="Arial" font-size="16" font-weight="normal">Type in config</tspan></text></g></g><g transform="translate(922.5322265625, 593.46484375)"><rect width="177.8515625" height="34" stroke="black" fill="white" stroke-width="2" transform="translate(0, 0)" rx="3"/><text fill="black" font-size="16" font-weight="normal" transform="translate(8, 8)" alignment-baseline="middle" font-family="Arial"><tspan x="0" dy="16" font-family="Arial" font-size="16" font-weight="normal">check if prefix in config</tspan></text></g><g transform="translate(933.9892578125, 736.828125)"><path d="M 77.46875,0 L 154.9375 77.46875 L 77.46875 154.9375 L 0 77.46875 Z" fill="white" stroke="black" stroke-dasharray="none" stroke-width="2"/><g transform="translate(17, 60.46875)"><rect width="120.9375" height="34" stroke="black" fill="none" stroke-width="0" transform="translate(0, 0)" rx="2"/><text fill="black" font-size="16" font-weight="normal" transform="translate(8, 8)" alignment-baseline="middle" font-family="Arial"><tspan x="0" dy="16" font-family="Arial" font-size="16" font-weight="normal">Prefix in config</tspan></text></g></g><g transform="translate(1135.625, 797.296875)"><rect width="173.4296875" height="34" stroke="black" fill="white" stroke-width="2" transform="translate(0, 0)" rx="3"/><text fill="black" font-size="16" font-weight="normal" transform="translate(8, 8)" alignment-baseline="middle" font-family="Arial"><tspan x="0" dy="16" font-family="Arial" font-size="16" font-weight="normal">Send ids to resolvable</tspan></text></g><g transform="translate(862.9462890625, 1042.49609375)"><rect width="297.0234375" height="34" stroke="black" fill="white" stroke-width="2" transform="translate(0, 0)" rx="3"/><text fill="black" font-size="16" font-weight="normal" transform="translate(8, 8)" alignment-baseline="middle" font-family="Arial"><tspan x="0" dy="16" font-family="Arial" font-size="16" font-weight="normal">Classify the type and ids as irresolvable</tspan></text></g><g transform="translate(361.259765625, 797.296875)"><rect width="259.703125" height="34" stroke="black" fill="white" stroke-width="2" transform="translate(0, 0)" rx="3"/><text fill="black" font-size="16" font-weight="normal" transform="translate(8, 8)" alignment-baseline="middle" font-family="Arial"><tspan x="0" dy="16" font-family="Arial" font-size="16" font-weight="normal">Check if descendant type in config</tspan></text></g><g transform="translate(375.380859375, 943.765625)"><path d="M 115.73046875,0 L 231.4609375 115.73046875 L 115.73046875 231.4609375 L 0 115.73046875 Z" fill="white" stroke="black" stroke-dasharray="none" stroke-width="2"/><g transform="translate(17, 98.73046875)"><rect width="197.4609375" height="34" stroke="black" fill="none" stroke-width="0" transform="translate(0, 0)" rx="2"/><text fill="black" font-size="16" font-weight="normal" transform="translate(8, 8)" alignment-baseline="middle" font-family="Arial"><tspan x="0" dy="16" font-family="Arial" font-size="16" font-weight="normal">descendant type in config</tspan></text></g></g><g transform="translate(653.5400390625, 1042.49609375)"><rect width="181.40625" height="34" stroke="black" fill="white" stroke-width="2" transform="translate(0, 0)" rx="3"/><text fill="black" font-size="16" font-weight="normal" transform="translate(8, 8)" alignment-baseline="middle" font-family="Arial"><tspan x="0" dy="16" font-family="Arial" font-size="16" font-weight="normal">Check if prefix in config</tspan></text></g><g transform="translate(0, 1227.2265625)"><rect width="135.1796875" height="34" stroke="black" fill="white" stroke-width="2" transform="translate(0, 0)" rx="3"/><text fill="black" font-size="16" font-weight="normal" transform="translate(8, 8)" alignment-baseline="middle" font-family="Arial"><tspan x="0" dy="16" font-family="Arial" font-size="16" font-weight="normal">Send ids to resol</tspan></text></g><g transform="translate(0, 1289.2265625)"><rect width="451.78125" height="34" stroke="black" fill="white" stroke-width="2" transform="translate(0, 0)" rx="3"/><text fill="black" font-size="16" font-weight="normal" transform="translate(8, 8)" alignment-baseline="middle" font-family="Arial"><tspan x="0" dy="16" font-family="Arial" font-size="16" font-weight="normal">Classify the type, its descendant types and ids as irresolvable</tspan></text></g><g transform="translate(-3.125, 387.84765625)"><rect width="145.859375" height="34" stroke="black" fill="white" stroke-width="2" transform="translate(0, 0)" rx="3"/><text fill="black" font-size="16" font-weight="normal" transform="translate(8, 8)" alignment-baseline="middle" font-family="Arial"><tspan x="0" dy="16" font-family="Arial" font-size="16" font-weight="normal">raise an exception</tspan></text></g><path d="M 69.8046875,34 L 69.8046875 48 L 69.8046875 62" fill="none" stroke="black" stroke-dasharray="none" stroke-width="2" marker-end="url(#arrow)"/><path d="M 69.8046875,96 L 69.8046875 110 L 69.8046875 124" fill="none" stroke="black" stroke-dasharray="none" stroke-width="2" marker-end="url(#arrow)"/><path d="M 144.6015625,198.796875 L 158.6015625 198.796875 L 191.2998046875 198.796875" fill="none" stroke="black" stroke-dasharray="none" stroke-width="2" marker-end="url(#arrow)"/><path d="M 280.6748046875,215.796875 L 280.6748046875 311.59375 L 280.6748046875 325.59375" fill="none" stroke="black" stroke-dasharray="none" stroke-width="2" marker-end="url(#arrow)"/><path d="M 359.9287109375,404.84765625 L 373.9287109375 404.84765625 L 406.626953125 404.84765625" fill="none" stroke="black" stroke-dasharray="none" stroke-width="2" marker-end="url(#arrow)"/><path d="M 491.111328125,421.84765625 L 491.111328125 522.1015625 L 491.111328125 536.1015625" fill="none" stroke="black" stroke-dasharray="none" stroke-width="2" marker-end="url(#arrow)"/><path d="M 565.474609375,610.46484375 L 579.474609375 610.46484375 L 922.5322265625 610.46484375" fill="none" stroke="black" stroke-dasharray="none" stroke-width="2" marker-end="url(#arrow)"/><path d="M 1011.4580078125,627.46484375 L 1011.4580078125 722.828125 L 1011.4580078125 736.828125" fill="none" stroke="black" stroke-dasharray="none" stroke-width="2" marker-end="url(#arrow)"/><path d="M 1088.9267578125,814.296875 L 1102.9267578125 814.296875 L 1135.625 814.296875" fill="none" stroke="black" stroke-dasharray="none" stroke-width="2" marker-end="url(#arrow)"/><path d="M 1011.4580078125,891.765625 L 1011.4580078125 929.765625 L 1011.4580078125 1042.49609375" fill="none" stroke="black" stroke-dasharray="none" stroke-width="2" marker-end="url(#arrow)"/><path d="M 491.111328125,684.828125 L 491.111328125 722.828125 L 491.111328125 797.296875" fill="none" stroke="black" stroke-dasharray="none" stroke-width="2" marker-end="url(#arrow)"/><path d="M 491.111328125,831.296875 L 491.111328125 929.765625 L 491.111328125 943.765625" fill="none" stroke="black" stroke-dasharray="none" stroke-width="2" marker-end="url(#arrow)"/><path d="M 606.841796875,1059.49609375 L 620.841796875 1059.49609375 L 653.5400390625 1059.49609375" fill="none" stroke="black" stroke-dasharray="none" stroke-width="2" marker-end="url(#arrow)"/><path d="M 744.2431640625,1076.49609375 L 744.2431640625 1213.2265625 L 1337.0546875 1213.2265625 L 1337.0546875 722.828125 L 1011.4580078125 722.828125 L 1011.4580078125 736.828125" fill="none" stroke="black" stroke-dasharray="none" stroke-width="2" marker-end="url(#arrow)"/><path d="M 1011.4580078125,891.765625 L 1011.4580078125 929.765625 L -159.484375 929.765625 L -159.484375 1213.2265625 L 67.58984375 1213.2265625 L 67.58984375 1227.2265625" fill="none" stroke="black" stroke-dasharray="none" stroke-width="2" marker-end="url(#arrow)"/><path d="M 1011.4580078125,891.765625 L 1011.4580078125 929.765625 L -159.484375 929.765625 L -159.484375 1275.2265625 L 225.890625 1275.2265625 L 225.890625 1289.2265625" fill="none" stroke="black" stroke-dasharray="none" stroke-width="2" marker-end="url(#arrow)"/><path d="M 491.111328125,1175.2265625 L 491.111328125 1213.2265625 L -159.484375 1213.2265625 L -159.484375 1275.2265625 L 225.890625 1275.2265625 L 225.890625 1289.2265625" fill="none" stroke="black" stroke-dasharray="none" stroke-width="2" marker-end="url(#arrow)"/><path d="M 280.6748046875,484.1015625 L 280.6748046875 522.1015625 L 1281.0546875 522.1015625 L 1281.0546875 1028.49609375 L 1011.4580078125 1028.49609375 L 1011.4580078125 1042.49609375" fill="none" stroke="black" stroke-dasharray="none" stroke-width="2" marker-end="url(#arrow)"/><path d="M 69.8046875,273.59375 L 69.8046875 311.59375 L 69.8046875 387.84765625" fill="none" stroke="black" stroke-dasharray="none" stroke-width="2" marker-end="url(#arrow)"/><g transform="translate(146.6015625, 171.796875)"><rect width="18.6982421875" height="24" stroke="none" fill="white" stroke-width="0" transform="translate(0, 0)" rx="2"/><text fill="black" font-size="14" font-weight="normal" transform="translate(4, 4)" alignment-baseline="middle" font-family="Arial"><tspan x="0" dy="14" font-family="Arial" font-size="14" font-weight="normal">✓</tspan></text></g><g transform="translate(71.8046875, 275.59375)"><rect width="17.337890625" height="24" stroke="none" fill="white" stroke-width="0" transform="translate(0, 0)" rx="2"/><text fill="black" font-size="14" font-weight="normal" transform="translate(4, 4)" alignment-baseline="middle" font-family="Arial"><tspan x="0" dy="14" font-family="Arial" font-size="14" font-weight="normal">X</tspan></text></g><g transform="translate(361.9287109375, 377.84765625)"><rect width="18.6982421875" height="24" stroke="none" fill="white" stroke-width="0" transform="translate(0, 0)" rx="2"/><text fill="black" font-size="14" font-weight="normal" transform="translate(4, 4)" alignment-baseline="middle" font-family="Arial"><tspan x="0" dy="14" font-family="Arial" font-size="14" font-weight="normal">✓</tspan></text></g><g transform="translate(282.6748046875, 486.1015625)"><rect width="17.337890625" height="24" stroke="none" fill="white" stroke-width="0" transform="translate(0, 0)" rx="2"/><text fill="black" font-size="14" font-weight="normal" transform="translate(4, 4)" alignment-baseline="middle" font-family="Arial"><tspan x="0" dy="14" font-family="Arial" font-size="14" font-weight="normal">X</tspan></text></g><g transform="translate(567.474609375, 583.46484375)"><rect width="18.6982421875" height="24" stroke="none" fill="white" stroke-width="0" transform="translate(0, 0)" rx="2"/><text fill="black" font-size="14" font-weight="normal" transform="translate(4, 4)" alignment-baseline="middle" font-family="Arial"><tspan x="0" dy="14" font-family="Arial" font-size="14" font-weight="normal">✓</tspan></text></g><g transform="translate(493.111328125, 686.828125)"><rect width="17.337890625" height="24" stroke="none" fill="white" stroke-width="0" transform="translate(0, 0)" rx="2"/><text fill="black" font-size="14" font-weight="normal" transform="translate(4, 4)" alignment-baseline="middle" font-family="Arial"><tspan x="0" dy="14" font-family="Arial" font-size="14" font-weight="normal">X</tspan></text></g><g transform="translate(1090.9267578125, 787.296875)"><rect width="18.6982421875" height="24" stroke="none" fill="white" stroke-width="0" transform="translate(0, 0)" rx="2"/><text fill="black" font-size="14" font-weight="normal" transform="translate(4, 4)" alignment-baseline="middle" font-family="Arial"><tspan x="0" dy="14" font-family="Arial" font-size="14" font-weight="normal">✓</tspan></text></g><g transform="translate(1013.4580078125, 893.765625)"><rect width="17.337890625" height="24" stroke="none" fill="white" stroke-width="0" transform="translate(0, 0)" rx="2"/><text fill="black" font-size="14" font-weight="normal" transform="translate(4, 4)" alignment-baseline="middle" font-family="Arial"><tspan x="0" dy="14" font-family="Arial" font-size="14" font-weight="normal">X</tspan></text></g><g transform="translate(608.841796875, 1032.49609375)"><rect width="18.6982421875" height="24" stroke="none" fill="white" stroke-width="0" transform="translate(0, 0)" rx="2"/><text fill="black" font-size="14" font-weight="normal" transform="translate(4, 4)" alignment-baseline="middle" font-family="Arial"><tspan x="0" dy="14" font-family="Arial" font-size="14" font-weight="normal">✓</tspan></text></g><g transform="translate(493.111328125, 1177.2265625)"><rect width="17.337890625" height="24" stroke="none" fill="white" stroke-width="0" transform="translate(0, 0)" rx="2"/><text fill="black" font-size="14" font-weight="normal" transform="translate(4, 4)" alignment-baseline="middle" font-family="Arial"><tspan x="0" dy="14" font-family="Arial" font-size="14" font-weight="normal">X</tspan></text></g></svg>